<?xml version="1.0" encoding="UTF-8" standalone="no"?>
<!-- Created with Inkscape (http://www.inkscape.org/) -->

<svg
   width="63.999996"
   height="63.999996"
   viewBox="0 0 16.933332 16.933332"
   version="1.1"
   id="svg5"
   xmlns="http://www.w3.org/2000/svg"
   xmlns:svg="http://www.w3.org/2000/svg">
  <defs
     id="defs2" />
  <g
     id="layer1">
    <rect
       style="fill:#c01c28;stroke-width:0.298152"
       id="rect301"
       width="16.933332"
       height="10.583333"
       x="2.5431316e-07"
       y="4.2333331"
       rx="1.0583333"
       ry="1.0583333" />
    <rect
       style="fill:#a51d2d;stroke-width:0.258206"
       id="rect359"
       width="16.933332"
       height="5.2916665"
       x="1.7838134e-07"
       y="5.2916665"
       rx="1.0583333"
       ry="1.0583333" />
    <rect
       style="fill:#c01c28;stroke-width:0.210826"
       id="rect301-3"
       width="16.933332"
       height="5.291667"
       x="3.5676268e-07"
       y="4.2333331"
       rx="1.0583333"
       ry="1.0583333" />
    <rect
       style="fill:#e01b24;stroke-width:0.258206"
       id="rect359-3"
       width="16.933332"
       height="5.2916665"
       x="5.0862627e-07"
       y="2.1166668"
       rx="1.0583333"
       ry="1.0583333" />
    <rect
       style="fill:#deddda;stroke-width:0.264583"
       id="rect492"
       width="2.1166666"
       height="3.175"
       x="3.175"
       y="8.4666662"
       rx="0.52916664"
       ry="0.52916664" />
    <rect
       style="fill:#deddda;stroke-width:0.264583"
       id="rect494"
       width="2.1166666"
       height="3.175"
       x="11.641666"
       y="8.4666662"
       rx="0.52916664"
       ry="0.52916664" />
    <path
       id="rect603"
       style="fill:#3d3846;stroke-width:0.264583"
       d="M 6.3499994,-1e-7 C 5.1773684,0 4.2333324,0.9440356 4.2333324,2.1166666 v 2.1166666 h 2.116667 V 3.1749999 c 0,-0.5863155 0.472018,-1.0583333 1.058333,-1.0583333 h 2.1166668 c 0.5863158,0 1.0583338,0.4720178 1.0583338,1.0583333 V 4.2333332 H 12.7 V 2.1166666 C 12.7,0.9440356 11.755964,-1e-7 10.583333,-1e-7 Z" />
    <path
       id="rect603-7"
       style="fill:#241f31;stroke-width:0.264583"
       d="m 6.3499992,1.0583332 c -1.172631,10e-8 -2.116667,0.9440353 -2.116667,2.1166663 v 2.116667 h 2.116667 v -1.058333 c 0,-0.586316 0.472018,-1.058334 1.058333,-1.058334 h 2.116667 c 0.5863158,0 1.0583338,0.472018 1.0583338,1.058334 v 1.058333 H 12.7 v -2.116667 c 0,-1.172631 -0.944036,-2.1166663 -2.116667,-2.1166663 z" />
  </g>
</svg>
